<mxfile host="app.diagrams.net" agent="Mozilla/5.0 (Windows NT 10.0; Win64; x64) AppleWebKit/537.36 (KHTML, like Gecko) Chrome/127.0.0.0 Safari/537.36" version="24.7.6">
  <diagram name="Trang-1" id="qoCtclmnTIg2j6k5t8bk">
    <mxGraphModel dx="989" dy="532" grid="1" gridSize="10" guides="1" tooltips="1" connect="1" arrows="1" fold="1" page="1" pageScale="1" pageWidth="1169" pageHeight="827" math="0" shadow="0">
      <root>
        <mxCell id="0" />
        <mxCell id="1" parent="0" />
        <mxCell id="frMeNEFfwjuMo3mBpww0-1" value="1" style="swimlane;fontStyle=0;childLayout=stackLayout;horizontal=1;startSize=20;fillColor=#ffffff;horizontalStack=0;resizeParent=1;resizeParentMax=0;resizeLast=0;collapsible=0;marginBottom=0;swimlaneFillColor=#ffffff;rounded=1;" vertex="1" parent="1">
          <mxGeometry x="650" y="270" width="100" height="110" as="geometry" />
        </mxCell>
        <mxCell id="frMeNEFfwjuMo3mBpww0-2" value="Quản lý hàng hóa" style="text;html=1;align=center;verticalAlign=middle;whiteSpace=wrap;rounded=1;" vertex="1" parent="frMeNEFfwjuMo3mBpww0-1">
          <mxGeometry y="20" width="100" height="90" as="geometry" />
        </mxCell>
        <mxCell id="frMeNEFfwjuMo3mBpww0-35" style="edgeStyle=orthogonalEdgeStyle;rounded=0;orthogonalLoop=1;jettySize=auto;html=1;exitX=0.25;exitY=0;exitDx=0;exitDy=0;entryX=1;entryY=0.75;entryDx=0;entryDy=0;" edge="1" parent="1" source="frMeNEFfwjuMo3mBpww0-13" target="frMeNEFfwjuMo3mBpww0-25">
          <mxGeometry relative="1" as="geometry">
            <Array as="points">
              <mxPoint x="270" y="270" />
              <mxPoint x="270" y="180" />
            </Array>
          </mxGeometry>
        </mxCell>
        <mxCell id="frMeNEFfwjuMo3mBpww0-36" value="Hóa đơn" style="edgeLabel;html=1;align=center;verticalAlign=middle;resizable=0;points=[];" vertex="1" connectable="0" parent="frMeNEFfwjuMo3mBpww0-35">
          <mxGeometry x="0.4074" y="-8" relative="1" as="geometry">
            <mxPoint as="offset" />
          </mxGeometry>
        </mxCell>
        <mxCell id="frMeNEFfwjuMo3mBpww0-13" value="2" style="swimlane;fontStyle=0;childLayout=stackLayout;horizontal=1;startSize=20;fillColor=#ffffff;horizontalStack=0;resizeParent=1;resizeParentMax=0;resizeLast=0;collapsible=0;marginBottom=0;swimlaneFillColor=#ffffff;rounded=1;" vertex="1" parent="1">
          <mxGeometry x="230" y="270" width="100" height="110" as="geometry" />
        </mxCell>
        <mxCell id="frMeNEFfwjuMo3mBpww0-14" value="Quản lý bán hàng" style="text;html=1;align=center;verticalAlign=middle;whiteSpace=wrap;rounded=1;" vertex="1" parent="frMeNEFfwjuMo3mBpww0-13">
          <mxGeometry y="20" width="100" height="90" as="geometry" />
        </mxCell>
        <mxCell id="frMeNEFfwjuMo3mBpww0-15" value="6" style="swimlane;fontStyle=0;childLayout=stackLayout;horizontal=1;startSize=20;fillColor=#ffffff;horizontalStack=0;resizeParent=1;resizeParentMax=0;resizeLast=0;collapsible=0;marginBottom=0;swimlaneFillColor=#ffffff;rounded=1;" vertex="1" parent="1">
          <mxGeometry x="430" y="480" width="100" height="110" as="geometry" />
        </mxCell>
        <mxCell id="frMeNEFfwjuMo3mBpww0-16" value="Quản lý tài chính" style="text;html=1;align=center;verticalAlign=middle;whiteSpace=wrap;rounded=1;" vertex="1" parent="frMeNEFfwjuMo3mBpww0-15">
          <mxGeometry y="20" width="100" height="90" as="geometry" />
        </mxCell>
        <mxCell id="frMeNEFfwjuMo3mBpww0-94" style="edgeStyle=orthogonalEdgeStyle;rounded=0;orthogonalLoop=1;jettySize=auto;html=1;exitX=0.372;exitY=-0.018;exitDx=0;exitDy=0;entryX=0.5;entryY=1;entryDx=0;entryDy=0;exitPerimeter=0;" edge="1" parent="1" source="frMeNEFfwjuMo3mBpww0-17" target="frMeNEFfwjuMo3mBpww0-2">
          <mxGeometry relative="1" as="geometry">
            <Array as="points">
              <mxPoint x="857" y="420" />
              <mxPoint x="700" y="420" />
            </Array>
          </mxGeometry>
        </mxCell>
        <mxCell id="frMeNEFfwjuMo3mBpww0-96" value="Hàng hóa" style="edgeLabel;html=1;align=center;verticalAlign=middle;resizable=0;points=[];" vertex="1" connectable="0" parent="frMeNEFfwjuMo3mBpww0-94">
          <mxGeometry x="0.0608" y="-8" relative="1" as="geometry">
            <mxPoint as="offset" />
          </mxGeometry>
        </mxCell>
        <mxCell id="frMeNEFfwjuMo3mBpww0-17" value="5" style="swimlane;fontStyle=0;childLayout=stackLayout;horizontal=1;startSize=20;fillColor=#ffffff;horizontalStack=0;resizeParent=1;resizeParentMax=0;resizeLast=0;collapsible=0;marginBottom=0;swimlaneFillColor=#ffffff;rounded=1;" vertex="1" parent="1">
          <mxGeometry x="820" y="470" width="100" height="110" as="geometry" />
        </mxCell>
        <mxCell id="frMeNEFfwjuMo3mBpww0-18" value="Quản lý nhà cung cấp" style="text;html=1;align=center;verticalAlign=middle;whiteSpace=wrap;rounded=1;" vertex="1" parent="frMeNEFfwjuMo3mBpww0-17">
          <mxGeometry y="20" width="100" height="90" as="geometry" />
        </mxCell>
        <mxCell id="frMeNEFfwjuMo3mBpww0-19" value="4" style="swimlane;fontStyle=0;childLayout=stackLayout;horizontal=1;startSize=20;fillColor=#ffffff;horizontalStack=0;resizeParent=1;resizeParentMax=0;resizeLast=0;collapsible=0;marginBottom=0;swimlaneFillColor=#ffffff;rounded=1;" vertex="1" parent="1">
          <mxGeometry x="430" y="130" width="100" height="110" as="geometry" />
        </mxCell>
        <mxCell id="frMeNEFfwjuMo3mBpww0-20" value="Quản lý khách hàng" style="text;html=1;align=center;verticalAlign=middle;whiteSpace=wrap;rounded=1;" vertex="1" parent="frMeNEFfwjuMo3mBpww0-19">
          <mxGeometry y="20" width="100" height="90" as="geometry" />
        </mxCell>
        <mxCell id="frMeNEFfwjuMo3mBpww0-21" value="3" style="swimlane;fontStyle=0;childLayout=stackLayout;horizontal=1;startSize=20;fillColor=#ffffff;horizontalStack=0;resizeParent=1;resizeParentMax=0;resizeLast=0;collapsible=0;marginBottom=0;swimlaneFillColor=#ffffff;rounded=1;" vertex="1" parent="1">
          <mxGeometry x="190" y="610" width="100" height="110" as="geometry" />
        </mxCell>
        <mxCell id="frMeNEFfwjuMo3mBpww0-22" value="Quản lý nhân viên" style="text;html=1;align=center;verticalAlign=middle;whiteSpace=wrap;rounded=1;" vertex="1" parent="frMeNEFfwjuMo3mBpww0-21">
          <mxGeometry y="20" width="100" height="90" as="geometry" />
        </mxCell>
        <mxCell id="frMeNEFfwjuMo3mBpww0-30" style="edgeStyle=orthogonalEdgeStyle;rounded=0;orthogonalLoop=1;jettySize=auto;html=1;exitX=0.75;exitY=0;exitDx=0;exitDy=0;" edge="1" parent="1" source="frMeNEFfwjuMo3mBpww0-25">
          <mxGeometry relative="1" as="geometry">
            <mxPoint x="310" y="270" as="targetPoint" />
            <Array as="points">
              <mxPoint x="100" y="130" />
              <mxPoint x="310" y="130" />
              <mxPoint x="310" y="270" />
            </Array>
          </mxGeometry>
        </mxCell>
        <mxCell id="frMeNEFfwjuMo3mBpww0-32" value="Thông tin khách hàng" style="edgeLabel;html=1;align=center;verticalAlign=middle;resizable=0;points=[];" vertex="1" connectable="0" parent="frMeNEFfwjuMo3mBpww0-30">
          <mxGeometry x="-0.3238" y="8" relative="1" as="geometry">
            <mxPoint as="offset" />
          </mxGeometry>
        </mxCell>
        <mxCell id="frMeNEFfwjuMo3mBpww0-33" style="edgeStyle=orthogonalEdgeStyle;rounded=0;orthogonalLoop=1;jettySize=auto;html=1;exitX=1;exitY=0.25;exitDx=0;exitDy=0;" edge="1" parent="1" source="frMeNEFfwjuMo3mBpww0-25">
          <mxGeometry relative="1" as="geometry">
            <mxPoint x="290" y="270" as="targetPoint" />
            <Array as="points">
              <mxPoint x="290" y="160" />
              <mxPoint x="290" y="268" />
            </Array>
          </mxGeometry>
        </mxCell>
        <mxCell id="frMeNEFfwjuMo3mBpww0-34" value="Đơn hàng" style="edgeLabel;html=1;align=center;verticalAlign=middle;resizable=0;points=[];" vertex="1" connectable="0" parent="frMeNEFfwjuMo3mBpww0-33">
          <mxGeometry x="-0.5239" y="8" relative="1" as="geometry">
            <mxPoint as="offset" />
          </mxGeometry>
        </mxCell>
        <mxCell id="frMeNEFfwjuMo3mBpww0-25" value="Khách hàng" style="rounded=0;whiteSpace=wrap;html=1;" vertex="1" parent="1">
          <mxGeometry x="10" y="150" width="120" height="40" as="geometry" />
        </mxCell>
        <mxCell id="frMeNEFfwjuMo3mBpww0-26" value="" style="html=1;dashed=0;whiteSpace=wrap;shape=mxgraph.dfd.dataStoreID;align=left;spacingLeft=3;points=[[0,0],[0.5,0],[1,0],[0,0.5],[1,0.5],[0,1],[0.5,1],[1,1]];" vertex="1" parent="1">
          <mxGeometry x="400" y="20" width="100" height="30" as="geometry" />
        </mxCell>
        <mxCell id="frMeNEFfwjuMo3mBpww0-27" value="Text" style="text;html=1;align=center;verticalAlign=middle;whiteSpace=wrap;rounded=0;" vertex="1" parent="1">
          <mxGeometry x="430" y="20" width="60" height="30" as="geometry" />
        </mxCell>
        <mxCell id="frMeNEFfwjuMo3mBpww0-28" value="" style="html=1;dashed=0;whiteSpace=wrap;shape=mxgraph.dfd.dataStoreID;align=left;spacingLeft=3;points=[[0,0],[0.5,0],[1,0],[0,0.5],[1,0.5],[0,1],[0.5,1],[1,1]];" vertex="1" parent="1">
          <mxGeometry x="250" y="520" width="120" height="30" as="geometry" />
        </mxCell>
        <mxCell id="frMeNEFfwjuMo3mBpww0-29" value="Doanh thu" style="text;html=1;align=center;verticalAlign=middle;whiteSpace=wrap;rounded=0;" vertex="1" parent="1">
          <mxGeometry x="280" y="520" width="70" height="30" as="geometry" />
        </mxCell>
        <mxCell id="frMeNEFfwjuMo3mBpww0-37" style="edgeStyle=orthogonalEdgeStyle;rounded=0;orthogonalLoop=1;jettySize=auto;html=1;exitX=0.161;exitY=0.009;exitDx=0;exitDy=0;entryX=0.75;entryY=1;entryDx=0;entryDy=0;exitPerimeter=0;" edge="1" parent="1" source="frMeNEFfwjuMo3mBpww0-13" target="frMeNEFfwjuMo3mBpww0-25">
          <mxGeometry relative="1" as="geometry">
            <Array as="points">
              <mxPoint x="246" y="210" />
              <mxPoint x="100" y="210" />
            </Array>
          </mxGeometry>
        </mxCell>
        <mxCell id="frMeNEFfwjuMo3mBpww0-38" value="Thông tin thanh toán" style="edgeLabel;html=1;align=center;verticalAlign=middle;resizable=0;points=[];" vertex="1" connectable="0" parent="frMeNEFfwjuMo3mBpww0-37">
          <mxGeometry x="-0.0592" y="-2" relative="1" as="geometry">
            <mxPoint x="-20" y="-6" as="offset" />
          </mxGeometry>
        </mxCell>
        <mxCell id="frMeNEFfwjuMo3mBpww0-51" style="edgeStyle=orthogonalEdgeStyle;rounded=0;orthogonalLoop=1;jettySize=auto;html=1;exitX=0.25;exitY=0;exitDx=0;exitDy=0;entryX=0.75;entryY=0;entryDx=0;entryDy=0;" edge="1" parent="1" source="frMeNEFfwjuMo3mBpww0-39" target="frMeNEFfwjuMo3mBpww0-1">
          <mxGeometry relative="1" as="geometry" />
        </mxCell>
        <mxCell id="frMeNEFfwjuMo3mBpww0-54" value="Loại hàng" style="edgeLabel;html=1;align=center;verticalAlign=middle;resizable=0;points=[];" vertex="1" connectable="0" parent="frMeNEFfwjuMo3mBpww0-51">
          <mxGeometry x="-0.3314" y="-8" relative="1" as="geometry">
            <mxPoint as="offset" />
          </mxGeometry>
        </mxCell>
        <mxCell id="frMeNEFfwjuMo3mBpww0-52" style="edgeStyle=orthogonalEdgeStyle;rounded=0;orthogonalLoop=1;jettySize=auto;html=1;exitX=0.5;exitY=0;exitDx=0;exitDy=0;entryX=0.5;entryY=0;entryDx=0;entryDy=0;" edge="1" parent="1" source="frMeNEFfwjuMo3mBpww0-39" target="frMeNEFfwjuMo3mBpww0-1">
          <mxGeometry relative="1" as="geometry">
            <Array as="points">
              <mxPoint x="900" y="130" />
              <mxPoint x="700" y="130" />
            </Array>
          </mxGeometry>
        </mxCell>
        <mxCell id="frMeNEFfwjuMo3mBpww0-55" value="Mặt hàng" style="edgeLabel;html=1;align=center;verticalAlign=middle;resizable=0;points=[];" vertex="1" connectable="0" parent="frMeNEFfwjuMo3mBpww0-52">
          <mxGeometry x="-0.2067" y="-7" relative="1" as="geometry">
            <mxPoint x="6" as="offset" />
          </mxGeometry>
        </mxCell>
        <mxCell id="frMeNEFfwjuMo3mBpww0-53" style="edgeStyle=orthogonalEdgeStyle;rounded=0;orthogonalLoop=1;jettySize=auto;html=1;exitX=0.75;exitY=0;exitDx=0;exitDy=0;entryX=0.25;entryY=0;entryDx=0;entryDy=0;" edge="1" parent="1" source="frMeNEFfwjuMo3mBpww0-39" target="frMeNEFfwjuMo3mBpww0-1">
          <mxGeometry relative="1" as="geometry">
            <Array as="points">
              <mxPoint x="930" y="100" />
              <mxPoint x="675" y="100" />
            </Array>
          </mxGeometry>
        </mxCell>
        <mxCell id="frMeNEFfwjuMo3mBpww0-56" value="Nhà cung cấp" style="edgeLabel;html=1;align=center;verticalAlign=middle;resizable=0;points=[];" vertex="1" connectable="0" parent="frMeNEFfwjuMo3mBpww0-53">
          <mxGeometry x="-0.1631" y="-8" relative="1" as="geometry">
            <mxPoint as="offset" />
          </mxGeometry>
        </mxCell>
        <mxCell id="frMeNEFfwjuMo3mBpww0-39" value="Bộ phận nhập hàng" style="rounded=0;whiteSpace=wrap;html=1;" vertex="1" parent="1">
          <mxGeometry x="840" y="177.5" width="120" height="45" as="geometry" />
        </mxCell>
        <mxCell id="frMeNEFfwjuMo3mBpww0-43" style="edgeStyle=orthogonalEdgeStyle;rounded=0;orthogonalLoop=1;jettySize=auto;html=1;exitX=0.25;exitY=0;exitDx=0;exitDy=0;" edge="1" parent="1" source="frMeNEFfwjuMo3mBpww0-40" target="frMeNEFfwjuMo3mBpww0-18">
          <mxGeometry relative="1" as="geometry">
            <mxPoint x="890" y="540" as="targetPoint" />
            <Array as="points">
              <mxPoint x="1070" y="575" />
              <mxPoint x="1070" y="540" />
            </Array>
          </mxGeometry>
        </mxCell>
        <mxCell id="frMeNEFfwjuMo3mBpww0-44" value="Chứng từ, hóa đơn" style="edgeLabel;html=1;align=center;verticalAlign=middle;resizable=0;points=[];" vertex="1" connectable="0" parent="frMeNEFfwjuMo3mBpww0-43">
          <mxGeometry x="0.2272" y="-10" relative="1" as="geometry">
            <mxPoint as="offset" />
          </mxGeometry>
        </mxCell>
        <mxCell id="frMeNEFfwjuMo3mBpww0-40" value="Nhà cung cấp" style="rounded=0;whiteSpace=wrap;html=1;" vertex="1" parent="1">
          <mxGeometry x="1030" y="575" width="120" height="45" as="geometry" />
        </mxCell>
        <mxCell id="frMeNEFfwjuMo3mBpww0-41" style="edgeStyle=orthogonalEdgeStyle;rounded=0;orthogonalLoop=1;jettySize=auto;html=1;exitX=1;exitY=0.25;exitDx=0;exitDy=0;" edge="1" parent="1" source="frMeNEFfwjuMo3mBpww0-18">
          <mxGeometry relative="1" as="geometry">
            <mxPoint x="930" y="510" as="sourcePoint" />
            <mxPoint x="1130" y="570" as="targetPoint" />
            <Array as="points">
              <mxPoint x="920" y="510" />
              <mxPoint x="1130" y="510" />
            </Array>
          </mxGeometry>
        </mxCell>
        <mxCell id="frMeNEFfwjuMo3mBpww0-42" value="Đơn hàng" style="edgeLabel;html=1;align=center;verticalAlign=middle;resizable=0;points=[];" vertex="1" connectable="0" parent="frMeNEFfwjuMo3mBpww0-41">
          <mxGeometry x="-0.1053" y="8" relative="1" as="geometry">
            <mxPoint as="offset" />
          </mxGeometry>
        </mxCell>
        <mxCell id="frMeNEFfwjuMo3mBpww0-77" style="edgeStyle=orthogonalEdgeStyle;rounded=0;orthogonalLoop=1;jettySize=auto;html=1;exitX=0;exitY=0.5;exitDx=0;exitDy=0;entryX=1;entryY=0.25;entryDx=0;entryDy=0;" edge="1" parent="1" source="frMeNEFfwjuMo3mBpww0-45" target="frMeNEFfwjuMo3mBpww0-14">
          <mxGeometry relative="1" as="geometry" />
        </mxCell>
        <mxCell id="frMeNEFfwjuMo3mBpww0-78" value="Hàng&lt;div&gt;bán&lt;/div&gt;" style="edgeLabel;html=1;align=center;verticalAlign=middle;resizable=0;points=[];" vertex="1" connectable="0" parent="frMeNEFfwjuMo3mBpww0-77">
          <mxGeometry x="-0.0117" relative="1" as="geometry">
            <mxPoint y="-15" as="offset" />
          </mxGeometry>
        </mxCell>
        <mxCell id="frMeNEFfwjuMo3mBpww0-45" value="" style="html=1;dashed=0;whiteSpace=wrap;shape=mxgraph.dfd.dataStoreID;align=left;spacingLeft=3;points=[[0,0],[0.5,0],[1,0],[0,0.5],[1,0.5],[0,1],[0.5,1],[1,1]];" vertex="1" parent="1">
          <mxGeometry x="430" y="298" width="100" height="30" as="geometry" />
        </mxCell>
        <mxCell id="frMeNEFfwjuMo3mBpww0-46" value="Kho hàng" style="text;html=1;align=center;verticalAlign=middle;whiteSpace=wrap;rounded=0;" vertex="1" parent="1">
          <mxGeometry x="460" y="298" width="60" height="30" as="geometry" />
        </mxCell>
        <mxCell id="frMeNEFfwjuMo3mBpww0-47" style="edgeStyle=orthogonalEdgeStyle;rounded=0;orthogonalLoop=1;jettySize=auto;html=1;exitX=1;exitY=0.25;exitDx=0;exitDy=0;entryX=0.5;entryY=1;entryDx=0;entryDy=0;" edge="1" parent="1" source="frMeNEFfwjuMo3mBpww0-2" target="frMeNEFfwjuMo3mBpww0-39">
          <mxGeometry relative="1" as="geometry">
            <Array as="points">
              <mxPoint x="750" y="310" />
              <mxPoint x="900" y="310" />
            </Array>
          </mxGeometry>
        </mxCell>
        <mxCell id="frMeNEFfwjuMo3mBpww0-50" value="Phiếu nhập hàng" style="edgeLabel;html=1;align=center;verticalAlign=middle;resizable=0;points=[];" vertex="1" connectable="0" parent="frMeNEFfwjuMo3mBpww0-47">
          <mxGeometry x="-0.3775" y="7" relative="1" as="geometry">
            <mxPoint as="offset" />
          </mxGeometry>
        </mxCell>
        <mxCell id="frMeNEFfwjuMo3mBpww0-61" value="" style="html=1;dashed=0;whiteSpace=wrap;shape=mxgraph.dfd.dataStoreID;align=left;spacingLeft=3;points=[[0,0],[0.5,0],[1,0],[0,0.5],[1,0.5],[0,1],[0.5,1],[1,1]];" vertex="1" parent="1">
          <mxGeometry x="630" y="480" width="100" height="30" as="geometry" />
        </mxCell>
        <mxCell id="frMeNEFfwjuMo3mBpww0-62" value="Phiếu nhập" style="text;html=1;align=center;verticalAlign=middle;whiteSpace=wrap;rounded=0;" vertex="1" parent="1">
          <mxGeometry x="660" y="480" width="60" height="30" as="geometry" />
        </mxCell>
        <mxCell id="frMeNEFfwjuMo3mBpww0-63" value="" style="html=1;dashed=0;whiteSpace=wrap;shape=mxgraph.dfd.dataStoreID;align=left;spacingLeft=3;points=[[0,0],[0.5,0],[1,0],[0,0.5],[1,0.5],[0,1],[0.5,1],[1,1]];" vertex="1" parent="1">
          <mxGeometry x="630" y="530" width="100" height="30" as="geometry" />
        </mxCell>
        <mxCell id="frMeNEFfwjuMo3mBpww0-64" value="Phiếu chi" style="text;html=1;align=center;verticalAlign=middle;whiteSpace=wrap;rounded=0;" vertex="1" parent="1">
          <mxGeometry x="660" y="530" width="60" height="30" as="geometry" />
        </mxCell>
        <mxCell id="frMeNEFfwjuMo3mBpww0-67" style="edgeStyle=orthogonalEdgeStyle;rounded=0;orthogonalLoop=1;jettySize=auto;html=1;exitX=-0.007;exitY=0.054;exitDx=0;exitDy=0;entryX=1;entryY=0.5;entryDx=0;entryDy=0;exitPerimeter=0;" edge="1" parent="1" source="frMeNEFfwjuMo3mBpww0-18" target="frMeNEFfwjuMo3mBpww0-61">
          <mxGeometry relative="1" as="geometry">
            <Array as="points">
              <mxPoint x="800" y="495" />
              <mxPoint x="800" y="495" />
            </Array>
          </mxGeometry>
        </mxCell>
        <mxCell id="frMeNEFfwjuMo3mBpww0-69" value="Xuất&lt;div&gt;phiếu nhập&lt;/div&gt;" style="edgeLabel;html=1;align=center;verticalAlign=middle;resizable=0;points=[];" vertex="1" connectable="0" parent="frMeNEFfwjuMo3mBpww0-67">
          <mxGeometry x="0.0061" y="1" relative="1" as="geometry">
            <mxPoint x="1" y="-24" as="offset" />
          </mxGeometry>
        </mxCell>
        <mxCell id="frMeNEFfwjuMo3mBpww0-68" style="edgeStyle=orthogonalEdgeStyle;rounded=0;orthogonalLoop=1;jettySize=auto;html=1;exitX=0;exitY=0.75;exitDx=0;exitDy=0;" edge="1" parent="1" source="frMeNEFfwjuMo3mBpww0-18" target="frMeNEFfwjuMo3mBpww0-63">
          <mxGeometry relative="1" as="geometry">
            <Array as="points">
              <mxPoint x="820" y="545" />
            </Array>
          </mxGeometry>
        </mxCell>
        <mxCell id="frMeNEFfwjuMo3mBpww0-70" value="Xuất&lt;div&gt;phiếu chi&lt;/div&gt;" style="edgeLabel;html=1;align=center;verticalAlign=middle;resizable=0;points=[];" vertex="1" connectable="0" parent="frMeNEFfwjuMo3mBpww0-68">
          <mxGeometry x="-0.0211" relative="1" as="geometry">
            <mxPoint y="-15" as="offset" />
          </mxGeometry>
        </mxCell>
        <mxCell id="frMeNEFfwjuMo3mBpww0-71" style="edgeStyle=orthogonalEdgeStyle;rounded=0;orthogonalLoop=1;jettySize=auto;html=1;exitX=0;exitY=0.5;exitDx=0;exitDy=0;" edge="1" parent="1" source="frMeNEFfwjuMo3mBpww0-61" target="frMeNEFfwjuMo3mBpww0-15">
          <mxGeometry relative="1" as="geometry">
            <Array as="points">
              <mxPoint x="530" y="495" />
              <mxPoint x="530" y="497" />
            </Array>
          </mxGeometry>
        </mxCell>
        <mxCell id="frMeNEFfwjuMo3mBpww0-72" value="Đơn&lt;div&gt;phiếu nhập&lt;/div&gt;" style="edgeLabel;html=1;align=center;verticalAlign=middle;resizable=0;points=[];" vertex="1" connectable="0" parent="frMeNEFfwjuMo3mBpww0-71">
          <mxGeometry x="0.0118" y="1" relative="1" as="geometry">
            <mxPoint y="-16" as="offset" />
          </mxGeometry>
        </mxCell>
        <mxCell id="frMeNEFfwjuMo3mBpww0-73" style="edgeStyle=orthogonalEdgeStyle;rounded=0;orthogonalLoop=1;jettySize=auto;html=1;exitX=0;exitY=0.5;exitDx=0;exitDy=0;entryX=1;entryY=0.5;entryDx=0;entryDy=0;" edge="1" parent="1" source="frMeNEFfwjuMo3mBpww0-63" target="frMeNEFfwjuMo3mBpww0-16">
          <mxGeometry relative="1" as="geometry" />
        </mxCell>
        <mxCell id="frMeNEFfwjuMo3mBpww0-74" value="Đơn&lt;div&gt;phiếu chi&lt;/div&gt;" style="edgeLabel;html=1;align=center;verticalAlign=middle;resizable=0;points=[];" vertex="1" connectable="0" parent="frMeNEFfwjuMo3mBpww0-73">
          <mxGeometry x="0.0375" relative="1" as="geometry">
            <mxPoint x="6" y="-15" as="offset" />
          </mxGeometry>
        </mxCell>
        <mxCell id="frMeNEFfwjuMo3mBpww0-75" style="edgeStyle=orthogonalEdgeStyle;rounded=0;orthogonalLoop=1;jettySize=auto;html=1;exitX=0;exitY=0.25;exitDx=0;exitDy=0;entryX=1;entryY=0.5;entryDx=0;entryDy=0;" edge="1" parent="1" source="frMeNEFfwjuMo3mBpww0-2" target="frMeNEFfwjuMo3mBpww0-45">
          <mxGeometry relative="1" as="geometry" />
        </mxCell>
        <mxCell id="frMeNEFfwjuMo3mBpww0-76" value="Nhập&lt;div&gt;hàng&lt;/div&gt;" style="edgeLabel;html=1;align=center;verticalAlign=middle;resizable=0;points=[];" vertex="1" connectable="0" parent="frMeNEFfwjuMo3mBpww0-75">
          <mxGeometry x="0.0077" y="1" relative="1" as="geometry">
            <mxPoint y="-16" as="offset" />
          </mxGeometry>
        </mxCell>
        <mxCell id="frMeNEFfwjuMo3mBpww0-86" style="edgeStyle=orthogonalEdgeStyle;rounded=0;orthogonalLoop=1;jettySize=auto;html=1;exitX=0;exitY=0.5;exitDx=0;exitDy=0;entryX=1;entryY=0.75;entryDx=0;entryDy=0;" edge="1" parent="1" source="frMeNEFfwjuMo3mBpww0-79" target="frMeNEFfwjuMo3mBpww0-14">
          <mxGeometry relative="1" as="geometry">
            <Array as="points">
              <mxPoint x="430" y="357" />
              <mxPoint x="380" y="357" />
            </Array>
          </mxGeometry>
        </mxCell>
        <mxCell id="frMeNEFfwjuMo3mBpww0-87" value="Đơn&lt;div&gt;giá bán&lt;/div&gt;" style="edgeLabel;html=1;align=center;verticalAlign=middle;resizable=0;points=[];" vertex="1" connectable="0" parent="frMeNEFfwjuMo3mBpww0-86">
          <mxGeometry x="-0.0068" y="-1" relative="1" as="geometry">
            <mxPoint y="-16" as="offset" />
          </mxGeometry>
        </mxCell>
        <mxCell id="frMeNEFfwjuMo3mBpww0-79" value="" style="html=1;dashed=0;whiteSpace=wrap;shape=mxgraph.dfd.dataStoreID;align=left;spacingLeft=3;points=[[0,0],[0.5,0],[1,0],[0,0.5],[1,0.5],[0,1],[0.5,1],[1,1]];" vertex="1" parent="1">
          <mxGeometry x="430" y="340" width="100" height="30" as="geometry" />
        </mxCell>
        <mxCell id="frMeNEFfwjuMo3mBpww0-80" value="Giá bán" style="text;html=1;align=center;verticalAlign=middle;whiteSpace=wrap;rounded=0;" vertex="1" parent="1">
          <mxGeometry x="460" y="340" width="60" height="30" as="geometry" />
        </mxCell>
        <mxCell id="frMeNEFfwjuMo3mBpww0-81" style="edgeStyle=orthogonalEdgeStyle;rounded=0;orthogonalLoop=1;jettySize=auto;html=1;exitX=0.5;exitY=0;exitDx=0;exitDy=0;entryX=0.333;entryY=1.071;entryDx=0;entryDy=0;entryPerimeter=0;" edge="1" parent="1" source="frMeNEFfwjuMo3mBpww0-15" target="frMeNEFfwjuMo3mBpww0-80">
          <mxGeometry relative="1" as="geometry" />
        </mxCell>
        <mxCell id="frMeNEFfwjuMo3mBpww0-82" value="Giá sản phẩm" style="edgeLabel;html=1;align=center;verticalAlign=middle;resizable=0;points=[];" vertex="1" connectable="0" parent="frMeNEFfwjuMo3mBpww0-81">
          <mxGeometry x="-0.057" y="1" relative="1" as="geometry">
            <mxPoint as="offset" />
          </mxGeometry>
        </mxCell>
        <mxCell id="frMeNEFfwjuMo3mBpww0-91" style="edgeStyle=orthogonalEdgeStyle;rounded=0;orthogonalLoop=1;jettySize=auto;html=1;exitX=0;exitY=0.5;exitDx=0;exitDy=0;" edge="1" parent="1" source="frMeNEFfwjuMo3mBpww0-88" target="frMeNEFfwjuMo3mBpww0-15">
          <mxGeometry relative="1" as="geometry">
            <Array as="points">
              <mxPoint x="520" y="635" />
            </Array>
          </mxGeometry>
        </mxCell>
        <mxCell id="frMeNEFfwjuMo3mBpww0-88" value="" style="html=1;dashed=0;whiteSpace=wrap;shape=mxgraph.dfd.dataStoreID;align=left;spacingLeft=3;points=[[0,0],[0.5,0],[1,0],[0,0.5],[1,0.5],[0,1],[0.5,1],[1,1]];" vertex="1" parent="1">
          <mxGeometry x="630" y="620" width="100" height="30" as="geometry" />
        </mxCell>
        <mxCell id="frMeNEFfwjuMo3mBpww0-89" value="Giá nhập" style="text;html=1;align=center;verticalAlign=middle;whiteSpace=wrap;rounded=0;" vertex="1" parent="1">
          <mxGeometry x="660" y="620" width="60" height="30" as="geometry" />
        </mxCell>
        <mxCell id="frMeNEFfwjuMo3mBpww0-90" style="edgeStyle=orthogonalEdgeStyle;rounded=0;orthogonalLoop=1;jettySize=auto;html=1;exitX=0.5;exitY=1;exitDx=0;exitDy=0;" edge="1" parent="1" source="frMeNEFfwjuMo3mBpww0-18" target="frMeNEFfwjuMo3mBpww0-88">
          <mxGeometry relative="1" as="geometry">
            <Array as="points">
              <mxPoint x="870" y="635" />
            </Array>
          </mxGeometry>
        </mxCell>
        <mxCell id="frMeNEFfwjuMo3mBpww0-93" style="edgeStyle=orthogonalEdgeStyle;rounded=0;orthogonalLoop=1;jettySize=auto;html=1;exitX=1;exitY=0.75;exitDx=0;exitDy=0;entryX=0.75;entryY=0;entryDx=0;entryDy=0;" edge="1" parent="1" source="frMeNEFfwjuMo3mBpww0-2" target="frMeNEFfwjuMo3mBpww0-17">
          <mxGeometry relative="1" as="geometry" />
        </mxCell>
        <mxCell id="frMeNEFfwjuMo3mBpww0-95" value="Đơn hàng" style="edgeLabel;html=1;align=center;verticalAlign=middle;resizable=0;points=[];" vertex="1" connectable="0" parent="frMeNEFfwjuMo3mBpww0-93">
          <mxGeometry x="-0.5003" y="7" relative="1" as="geometry">
            <mxPoint as="offset" />
          </mxGeometry>
        </mxCell>
        <mxCell id="frMeNEFfwjuMo3mBpww0-97" style="edgeStyle=orthogonalEdgeStyle;rounded=0;orthogonalLoop=1;jettySize=auto;html=1;exitX=0;exitY=0;exitDx=0;exitDy=0;entryX=0.5;entryY=1;entryDx=0;entryDy=0;" edge="1" parent="1" source="frMeNEFfwjuMo3mBpww0-14" target="frMeNEFfwjuMo3mBpww0-25">
          <mxGeometry relative="1" as="geometry">
            <Array as="points">
              <mxPoint x="200" y="290" />
              <mxPoint x="200" y="250" />
              <mxPoint x="70" y="250" />
            </Array>
          </mxGeometry>
        </mxCell>
        <mxCell id="frMeNEFfwjuMo3mBpww0-99" value="Chương trình&lt;div&gt;khuyến mãi&lt;/div&gt;" style="edgeLabel;html=1;align=center;verticalAlign=middle;resizable=0;points=[];" vertex="1" connectable="0" parent="frMeNEFfwjuMo3mBpww0-97">
          <mxGeometry x="0.0588" y="-14" relative="1" as="geometry">
            <mxPoint as="offset" />
          </mxGeometry>
        </mxCell>
        <mxCell id="frMeNEFfwjuMo3mBpww0-101" style="edgeStyle=orthogonalEdgeStyle;rounded=0;orthogonalLoop=1;jettySize=auto;html=1;exitX=0.803;exitY=1.02;exitDx=0;exitDy=0;exitPerimeter=0;" edge="1" parent="1" source="frMeNEFfwjuMo3mBpww0-14" target="frMeNEFfwjuMo3mBpww0-28">
          <mxGeometry relative="1" as="geometry">
            <mxPoint x="310" y="530" as="targetPoint" />
            <Array as="points" />
          </mxGeometry>
        </mxCell>
        <mxCell id="frMeNEFfwjuMo3mBpww0-102" value="Báo cáo" style="edgeLabel;html=1;align=center;verticalAlign=middle;resizable=0;points=[];" vertex="1" connectable="0" parent="frMeNEFfwjuMo3mBpww0-101">
          <mxGeometry x="0.0069" relative="1" as="geometry">
            <mxPoint as="offset" />
          </mxGeometry>
        </mxCell>
        <mxCell id="frMeNEFfwjuMo3mBpww0-103" style="edgeStyle=orthogonalEdgeStyle;rounded=0;orthogonalLoop=1;jettySize=auto;html=1;exitX=1;exitY=0.5;exitDx=0;exitDy=0;entryX=0;entryY=0.388;entryDx=0;entryDy=0;entryPerimeter=0;" edge="1" parent="1" source="frMeNEFfwjuMo3mBpww0-28" target="frMeNEFfwjuMo3mBpww0-16">
          <mxGeometry relative="1" as="geometry" />
        </mxCell>
        <mxCell id="frMeNEFfwjuMo3mBpww0-105" style="edgeStyle=orthogonalEdgeStyle;rounded=0;orthogonalLoop=1;jettySize=auto;html=1;exitX=0.5;exitY=1;exitDx=0;exitDy=0;entryX=0;entryY=0.75;entryDx=0;entryDy=0;" edge="1" parent="1" source="frMeNEFfwjuMo3mBpww0-104" target="frMeNEFfwjuMo3mBpww0-22">
          <mxGeometry relative="1" as="geometry">
            <Array as="points">
              <mxPoint x="70" y="550" />
              <mxPoint x="70" y="698" />
            </Array>
          </mxGeometry>
        </mxCell>
        <mxCell id="frMeNEFfwjuMo3mBpww0-106" value="Thông tin cá nhân" style="edgeLabel;html=1;align=center;verticalAlign=middle;resizable=0;points=[];" vertex="1" connectable="0" parent="frMeNEFfwjuMo3mBpww0-105">
          <mxGeometry x="0.0896" y="-1" relative="1" as="geometry">
            <mxPoint x="1" y="-11" as="offset" />
          </mxGeometry>
        </mxCell>
        <mxCell id="frMeNEFfwjuMo3mBpww0-107" style="edgeStyle=orthogonalEdgeStyle;rounded=0;orthogonalLoop=1;jettySize=auto;html=1;exitX=0.796;exitY=0.053;exitDx=0;exitDy=0;entryX=0.5;entryY=1;entryDx=0;entryDy=0;exitPerimeter=0;" edge="1" parent="1" source="frMeNEFfwjuMo3mBpww0-104" target="frMeNEFfwjuMo3mBpww0-14">
          <mxGeometry relative="1" as="geometry">
            <Array as="points">
              <mxPoint x="110" y="510" />
              <mxPoint x="110" y="445" />
              <mxPoint x="280" y="445" />
            </Array>
          </mxGeometry>
        </mxCell>
        <mxCell id="frMeNEFfwjuMo3mBpww0-108" value="Nhân viên bán hàng" style="edgeLabel;html=1;align=center;verticalAlign=middle;resizable=0;points=[];" vertex="1" connectable="0" parent="frMeNEFfwjuMo3mBpww0-107">
          <mxGeometry x="0.4757" y="2" relative="1" as="geometry">
            <mxPoint x="-78" y="-6" as="offset" />
          </mxGeometry>
        </mxCell>
        <mxCell id="frMeNEFfwjuMo3mBpww0-115" style="edgeStyle=orthogonalEdgeStyle;rounded=0;orthogonalLoop=1;jettySize=auto;html=1;exitX=0.75;exitY=1;exitDx=0;exitDy=0;entryX=0;entryY=0.25;entryDx=0;entryDy=0;" edge="1" parent="1" source="frMeNEFfwjuMo3mBpww0-104" target="frMeNEFfwjuMo3mBpww0-22">
          <mxGeometry relative="1" as="geometry" />
        </mxCell>
        <mxCell id="frMeNEFfwjuMo3mBpww0-116" value="Chấm công" style="edgeLabel;html=1;align=center;verticalAlign=middle;resizable=0;points=[];" vertex="1" connectable="0" parent="frMeNEFfwjuMo3mBpww0-115">
          <mxGeometry x="-0.4328" y="-1" relative="1" as="geometry">
            <mxPoint as="offset" />
          </mxGeometry>
        </mxCell>
        <mxCell id="frMeNEFfwjuMo3mBpww0-104" value="Nhân viên" style="html=1;dashed=0;whiteSpace=wrap;" vertex="1" parent="1">
          <mxGeometry x="30" y="510" width="100" height="40" as="geometry" />
        </mxCell>
        <mxCell id="frMeNEFfwjuMo3mBpww0-109" value="" style="html=1;dashed=0;whiteSpace=wrap;shape=mxgraph.dfd.dataStoreID;align=left;spacingLeft=3;points=[[0,0],[0.5,0],[1,0],[0,0.5],[1,0.5],[0,1],[0.5,1],[1,1]];" vertex="1" parent="1">
          <mxGeometry x="380" y="670" width="120" height="30" as="geometry" />
        </mxCell>
        <mxCell id="frMeNEFfwjuMo3mBpww0-110" value="Nhân viên" style="text;html=1;align=center;verticalAlign=middle;whiteSpace=wrap;rounded=0;" vertex="1" parent="1">
          <mxGeometry x="410" y="670" width="70" height="30" as="geometry" />
        </mxCell>
        <mxCell id="frMeNEFfwjuMo3mBpww0-111" style="edgeStyle=orthogonalEdgeStyle;rounded=0;orthogonalLoop=1;jettySize=auto;html=1;entryX=0;entryY=0.5;entryDx=0;entryDy=0;" edge="1" parent="1" target="frMeNEFfwjuMo3mBpww0-109">
          <mxGeometry relative="1" as="geometry">
            <mxPoint x="290" y="685" as="sourcePoint" />
            <Array as="points" />
          </mxGeometry>
        </mxCell>
        <mxCell id="frMeNEFfwjuMo3mBpww0-112" value="Cập nhật" style="edgeLabel;html=1;align=center;verticalAlign=middle;resizable=0;points=[];" vertex="1" connectable="0" parent="frMeNEFfwjuMo3mBpww0-111">
          <mxGeometry x="-0.0582" y="8" relative="1" as="geometry">
            <mxPoint as="offset" />
          </mxGeometry>
        </mxCell>
        <mxCell id="frMeNEFfwjuMo3mBpww0-118" style="edgeStyle=orthogonalEdgeStyle;rounded=0;orthogonalLoop=1;jettySize=auto;html=1;exitX=1;exitY=0;exitDx=0;exitDy=0;" edge="1" parent="1" source="frMeNEFfwjuMo3mBpww0-109" target="frMeNEFfwjuMo3mBpww0-15">
          <mxGeometry relative="1" as="geometry">
            <Array as="points">
              <mxPoint x="470" y="670" />
            </Array>
          </mxGeometry>
        </mxCell>
        <mxCell id="frMeNEFfwjuMo3mBpww0-119" value="Lương, thưởng" style="edgeLabel;html=1;align=center;verticalAlign=middle;resizable=0;points=[];" vertex="1" connectable="0" parent="frMeNEFfwjuMo3mBpww0-118">
          <mxGeometry x="0.2979" relative="1" as="geometry">
            <mxPoint as="offset" />
          </mxGeometry>
        </mxCell>
        <mxCell id="frMeNEFfwjuMo3mBpww0-121" style="edgeStyle=orthogonalEdgeStyle;rounded=0;orthogonalLoop=1;jettySize=auto;html=1;exitX=0;exitY=0.75;exitDx=0;exitDy=0;entryX=0.178;entryY=0.071;entryDx=0;entryDy=0;entryPerimeter=0;" edge="1" parent="1" source="frMeNEFfwjuMo3mBpww0-16" target="frMeNEFfwjuMo3mBpww0-109">
          <mxGeometry relative="1" as="geometry" />
        </mxCell>
        <mxCell id="frMeNEFfwjuMo3mBpww0-122" value="Thanh toán&lt;div&gt;khấu trừ&lt;/div&gt;" style="edgeLabel;html=1;align=center;verticalAlign=middle;resizable=0;points=[];" vertex="1" connectable="0" parent="frMeNEFfwjuMo3mBpww0-121">
          <mxGeometry x="0.1613" y="-1" relative="1" as="geometry">
            <mxPoint as="offset" />
          </mxGeometry>
        </mxCell>
      </root>
    </mxGraphModel>
  </diagram>
</mxfile>
